<svg id="AF_Logo" xmlns="http://www.w3.org/2000/svg" viewBox="0 0 415.26 405.94">
<path d="M454,47l-72.22.1h-1A307.63,307.63,0,0,0,340.83,51a3.62,3.62,0,0,0-3,3.58v294a3.61,3.61,0,0,1-3.61,3.61h-11.6v-293c0-2.7-1.83-4.63-3.62-3.8-14.69,
6.82-71.68,37.1-128.67,118.73-33.81,48.42-50.67,119.81-59.07,178H46a3.61,3.61,0,0,0-3.61,3.61v1.89A3.61,3.61,0,0,0,46,361.31h84a835.42,835.42,0,0,0-7,
86.1c0,2.25,1.21,4.12,2.78,4.12h50.67c1.54,0,2.78-1.78,2.79-4a557.41,557.41,0,0,1,7.54-86.24h83.4L270.05,449c0,2.18,1.25,4,2.78,4h47c1.54,0,2.78-1.79,
2.78-4V361.31h64.24a3.6,3.6,0,0,0,3.6-3.61V219.49a3.63,3.63,0,0,1,4.46-3.52c46.47,10.82,48.45,52.73,47.94,65.51a3.6,3.6,0,0,0,3.61,3.72H447a3.61,
3.61,0,0,0,3.61-3.61V144a3.62,3.62,0,0,0-3.61-3.61,3.64,3.64,0,0,0-3.61,3.55c-1.38,42.74-27.72,59.19-48.35,65.5a3.6,3.6,0,0,1-4.62-3.46V52a3.64,
3.64,0,0,1,4.19-3.57c53.56,8,55.77,53.48,55.23,66.9a3.6,3.6,0,0,0,3.61,3.72H454a3.61,3.61,0,0,0,3.61-3.6V50.64A3.61,3.61,0,0,0,454,47ZM188.32,
352.2c10.26-55.81,31.92-122.88,77.63-166.81,1.85-1.78,4.34.07,4.36,3.26l-.16,163.55Z" transform="translate(-42.37 -47.03)"/>
<circle cx="385.12" cy="382.22" r="23.05"/></svg>